<svg width="937" height="432" viewBox="0 0 937 432" fill="none" xmlns="http://www.w3.org/2000/svg">
<rect width="937" height="432" rx="10" fill="white"/>
<mask id="mask0_3567_26028" style="mask-type:alpha" maskUnits="userSpaceOnUse" x="173" y="137" width="158" height="158">
<rect x="173" y="137" width="158" height="158" fill="#D9D9D9"/>
</mask>
<g mask="url(#mask0_3567_26028)">
<path d="M232.081 195.842L232.486 160.776C232.602 150.769 243.506 144.64 252.115 149.744L312.466 185.522C321.07 190.623 320.931 203.123 312.217 208.032L249.365 243.433" stroke="#152554" stroke-width="12.8825"/>
<path d="M232.079 195.841L232.484 160.775C232.599 150.768 243.504 144.639 252.112 149.743L294.875 175.094" stroke="url(#paint0_linear_3567_26028)" stroke-width="12.8825" stroke-linecap="round"/>
<path d="M244.07 242.155L213.5 259.338C204.776 264.241 194.016 257.862 194.131 247.855L194.941 177.7C195.056 167.699 205.951 161.569 214.559 166.662L276.644 203.392" stroke="#152554" stroke-width="12.8825" stroke-linecap="round" stroke-linejoin="round"/>
<path d="M244.07 242.157L213.5 259.339C204.776 264.243 194.016 257.863 194.131 247.857L194.705 198.148" stroke="url(#paint1_linear_3567_26028)" stroke-width="12.8825" stroke-linecap="round"/>
<path d="M277.547 208.263L307.713 226.146C316.321 231.25 316.177 243.758 307.453 248.661L246.292 283.038C237.573 287.939 226.817 281.569 226.923 271.567L227.69 199.436" stroke="#152554" stroke-width="12.8825" stroke-linecap="round" stroke-linejoin="round"/>
<path d="M277.548 208.263L307.714 226.146C316.322 231.25 316.178 243.758 307.454 248.661L264.118 273.019" stroke="url(#paint2_linear_3567_26028)" stroke-width="12.8825" stroke-linecap="round"/>
<path d="M249.364 243.438L312.215 208.036C320.93 203.127 321.068 190.627 312.464 185.527L304.71 180.929" stroke="#152554" stroke-width="12.8825" stroke-linecap="round"/>
<circle cx="316.703" cy="196.539" r="11.0595" transform="rotate(90 316.703 196.539)" fill="#152554" stroke="white" stroke-width="5.061"/>
<circle cx="233.362" cy="281.463" r="11.0595" transform="rotate(90 233.362 281.463)" fill="#152554" stroke="white" stroke-width="5.061"/>
<circle cx="202.771" cy="168.057" r="11.0595" transform="rotate(90 202.771 168.057)" fill="#152554" stroke="white" stroke-width="5.061"/>
<path d="M276.642 203.396L235.92 179.305" stroke="#152554" stroke-width="12.8825" stroke-linecap="round" stroke-linejoin="round"/>
</g>
<path d="M401.312 263.876C394.888 263.876 388.999 262.416 383.646 259.496C378.39 256.479 374.156 252.05 370.944 246.21C367.829 240.37 366.272 233.07 366.272 224.31C366.272 215.55 367.781 208.25 370.798 202.41C373.913 196.57 378.098 192.19 383.354 189.27C388.707 186.35 394.693 184.89 401.312 184.89C408.904 184.89 415.62 186.545 421.46 189.854C427.3 193.163 431.923 197.787 435.33 203.724C438.737 209.564 440.44 216.426 440.44 224.31C440.44 232.194 438.737 239.105 435.33 245.042C431.923 250.979 427.3 255.603 421.46 258.912C415.62 262.221 408.904 263.876 401.312 263.876ZM360.286 291.324V185.62H373.718V206.498L372.842 224.456L374.302 242.414V291.324H360.286ZM400.144 251.612C405.108 251.612 409.537 250.493 413.43 248.254C417.421 246.015 420.535 242.852 422.774 238.764C425.11 234.579 426.278 229.761 426.278 224.31C426.278 218.762 425.11 213.993 422.774 210.002C420.535 205.914 417.421 202.751 413.43 200.512C409.537 198.273 405.108 197.154 400.144 197.154C395.277 197.154 390.849 198.273 386.858 200.512C382.965 202.751 379.85 205.914 377.514 210.002C375.275 213.993 374.156 218.762 374.156 224.31C374.156 229.761 375.275 234.579 377.514 238.764C379.85 242.852 382.965 246.015 386.858 248.254C390.849 250.493 395.277 251.612 400.144 251.612Z" fill="#152554"/>
<path d="M449.586 263V185.62H463.602V263H449.586ZM456.594 170.728C453.868 170.728 451.581 169.852 449.732 168.1C447.98 166.348 447.104 164.207 447.104 161.676C447.104 159.048 447.98 156.858 449.732 155.106C451.581 153.354 453.868 152.478 456.594 152.478C459.319 152.478 461.558 153.354 463.31 155.106C465.159 156.761 466.084 158.853 466.084 161.384C466.084 164.012 465.208 166.251 463.456 168.1C461.704 169.852 459.416 170.728 456.594 170.728Z" fill="#152554"/>
<path d="M521.461 184.89C527.788 184.89 533.336 186.107 538.105 188.54C542.972 190.973 546.768 194.672 549.493 199.636C552.218 204.6 553.581 210.878 553.581 218.47V263H539.565V220.076C539.565 212.581 537.716 206.936 534.017 203.14C530.416 199.344 525.306 197.446 518.687 197.446C513.723 197.446 509.392 198.419 505.693 200.366C501.994 202.313 499.123 205.184 497.079 208.98C495.132 212.776 494.159 217.497 494.159 223.142V263H480.143V185.62H493.575V206.498L491.385 200.95C493.916 195.889 497.809 191.947 503.065 189.124C508.321 186.301 514.453 184.89 521.461 184.89Z" fill="#152554"/>
<path d="M603.026 263.876C595.142 263.876 588.085 262.173 581.856 258.766C575.724 255.359 570.906 250.687 567.402 244.75C563.898 238.813 562.146 231.999 562.146 224.31C562.146 216.621 563.898 209.807 567.402 203.87C570.906 197.933 575.724 193.309 581.856 190C588.085 186.593 595.142 184.89 603.026 184.89C610.034 184.89 616.263 186.301 621.714 189.124C627.262 191.849 631.545 195.937 634.562 201.388L623.904 208.25C621.373 204.454 618.259 201.68 614.56 199.928C610.959 198.079 607.065 197.154 602.88 197.154C597.819 197.154 593.293 198.273 589.302 200.512C585.311 202.751 582.148 205.914 579.812 210.002C577.476 213.993 576.308 218.762 576.308 224.31C576.308 229.858 577.476 234.676 579.812 238.764C582.148 242.852 585.311 246.015 589.302 248.254C593.293 250.493 597.819 251.612 602.88 251.612C607.065 251.612 610.959 250.736 614.56 248.984C618.259 247.135 621.373 244.312 623.904 240.516L634.562 247.232C631.545 252.585 627.262 256.722 621.714 259.642C616.263 262.465 610.034 263.876 603.026 263.876Z" fill="#152554"/>
<path d="M682.808 184.89C689.135 184.89 694.683 186.107 699.452 188.54C704.319 190.973 708.115 194.672 710.84 199.636C713.565 204.6 714.928 210.878 714.928 218.47V263H700.912V220.076C700.912 212.581 699.063 206.936 695.364 203.14C691.763 199.344 686.653 197.446 680.034 197.446C675.07 197.446 670.739 198.419 667.04 200.366C663.341 202.313 660.47 205.184 658.426 208.98C656.479 212.776 655.506 217.497 655.506 223.142V263H641.49V154.668H655.506V206.498L652.732 200.95C655.263 195.889 659.156 191.947 664.412 189.124C669.668 186.301 675.8 184.89 682.808 184.89Z" fill="#152554"/>
<defs>
<linearGradient id="paint0_linear_3567_26028" x1="239.83" y1="190.333" x2="286.247" y2="163.696" gradientUnits="userSpaceOnUse">
<stop stop-color="white"/>
<stop offset="1" stop-color="#152554"/>
</linearGradient>
<linearGradient id="paint1_linear_3567_26028" x1="235.424" y1="238.198" x2="189.147" y2="211.319" gradientUnits="userSpaceOnUse">
<stop stop-color="white"/>
<stop offset="1" stop-color="white" stop-opacity="0"/>
</linearGradient>
<linearGradient id="paint2_linear_3567_26028" x1="269.106" y1="212.222" x2="277.282" y2="274.99" gradientUnits="userSpaceOnUse">
<stop stop-color="white"/>
<stop offset="1" stop-color="white" stop-opacity="0"/>
</linearGradient>
</defs>
</svg>
