<svg width="18" height="12" viewBox="0 0 18 12" fill="currentColor" xmlns="http://www.w3.org/2000/svg">
<path d="M16.8108 7.76395C16.2538 7.76395 15.8028 7.31295 15.8028 6.75595V3.65995L10.8108 8.72395C10.6278 8.91095 10.3728 9.02695 10.0908 9.02695C9.80883 9.02695 9.55383 8.91095 9.37083 8.72495L7.37883 6.66095L2.57883 11.461C2.39683 11.641 2.14683 11.752 1.87083 11.752C1.59483 11.752 1.34483 11.641 1.16283 11.461C0.982826 11.279 0.871826 11.029 0.871826 10.753C0.871826 10.477 0.982826 10.227 1.16283 10.045L6.65883 4.54895C6.84183 4.36195 7.09683 4.24595 7.37883 4.24595C7.66083 4.24595 7.91583 4.36195 8.09883 4.54795L10.0908 6.61195L14.4108 2.26795H11.2908C10.7338 2.26795 10.2828 1.81695 10.2828 1.25995C10.2828 0.702954 10.7338 0.251953 11.2908 0.251953H16.3068C17.1318 0.264953 17.7948 0.936953 17.7948 1.76395C17.7948 1.77295 17.7948 1.78095 17.7948 1.78895V6.77995C17.7818 7.31795 17.3488 7.75095 16.8118 7.76395H16.8108Z" fill="currentColor"/>
</svg>
