<svg width="48" height="48" viewBox="0 0 48 48" fill="none" xmlns="http://www.w3.org/2000/svg">
<g filter="url(#filter0_d_723_9802)">
<rect x="4" width="40" height="40" rx="12" fill="white"/>
<path fill-rule="evenodd" clip-rule="evenodd" d="M31.5839 15.6264C31.323 13.3345 29.3279 12.5995 26.8221 12.424L26.7665 9.23961L24.8281 9.27373L24.8824 12.3742C24.3728 12.3831 23.8522 12.4023 23.3348 12.4216L23.2806 9.30053L21.3434 9.33434L21.3983 12.5179C20.9789 12.5338 20.5668 12.5489 20.165 12.5561L20.1646 12.5461L17.4912 12.5918L17.5278 14.662C17.5278 14.662 18.9587 14.6098 18.9354 14.6365C19.7204 14.623 19.984 15.0744 20.0654 15.4664L20.1288 19.0941C20.1829 19.0934 20.2536 19.0944 20.334 19.1041L20.2777 19.1051C20.2299 19.1059 20.1801 19.1067 20.1292 19.1081L20.2174 24.1902C20.1874 24.4379 20.049 24.8345 19.5004 24.845C19.5257 24.8665 18.0915 24.8692 18.0915 24.8692L17.7466 27.1909L20.2692 27.1468C20.5455 27.1423 20.8192 27.1405 21.0902 27.1386L21.0906 27.1386C21.2799 27.1373 21.4678 27.1361 21.6542 27.1339L21.7113 30.3546L23.6476 30.3211L23.5918 27.1344C24.1237 27.1361 24.6381 27.1314 25.1405 27.1222L25.1951 30.2941L27.1335 30.26L27.0779 27.045C30.3334 26.8011 32.5999 25.9404 32.8296 22.8751C33.0152 20.407 31.8369 19.3278 29.9794 18.9159C31.0933 18.324 31.7784 17.3034 31.5846 15.6265L31.5839 15.6262L31.5839 15.6264ZM28.991 22.5598C29.0305 24.768 25.5608 24.7804 23.9733 24.7861L23.9732 24.7861C23.8305 24.7866 23.7029 24.787 23.5945 24.789L23.5206 20.5217C23.6527 20.5195 23.8132 20.5129 23.9951 20.5054C25.6208 20.4387 28.9518 20.3019 28.9911 22.5598L28.991 22.5598ZM23.806 18.5673C25.1304 18.566 28.0197 18.5631 27.9851 16.5557L27.9853 16.5557C27.9492 14.5029 25.1733 14.6249 23.8175 14.6845C23.665 14.6912 23.5304 14.6971 23.4198 14.699L23.4872 18.5691C23.5783 18.5675 23.6857 18.5674 23.806 18.5673Z" fill="#F7931A"/>
</g>
<defs>
<filter id="filter0_d_723_9802" x="0" y="0" width="48" height="48" filterUnits="userSpaceOnUse" color-interpolation-filters="sRGB">
<feFlood flood-opacity="0" result="BackgroundImageFix"/>
<feColorMatrix in="SourceAlpha" type="matrix" values="0 0 0 0 0 0 0 0 0 0 0 0 0 0 0 0 0 0 127 0" result="hardAlpha"/>
<feOffset dy="4"/>
<feGaussianBlur stdDeviation="2"/>
<feComposite in2="hardAlpha" operator="out"/>
<feColorMatrix type="matrix" values="0 0 0 0 0 0 0 0 0 0 0 0 0 0 0 0 0 0 0.04 0"/>
<feBlend mode="normal" in2="BackgroundImageFix" result="effect1_dropShadow_723_9802"/>
<feBlend mode="normal" in="SourceGraphic" in2="effect1_dropShadow_723_9802" result="shape"/>
</filter>
</defs>
</svg>
